<?xml version="1.0" encoding="utf-8"?>
<!-- Generator: Adobe Illustrator 22.0.1, SVG Export Plug-In . SVG Version: 6.00 Build 0)  -->
<svg version="1.1" id="Layer_1" xmlns="http://www.w3.org/2000/svg" xmlns:xlink="http://www.w3.org/1999/xlink" x="0px" y="0px"
	 viewBox="64 0 384.1 512" style="enable-background:new 64 0 384.1 512;" xml:space="preserve">
<style type="text/css">
	.st0{fill:#4279DF;}
</style>
<g>
	<g>
		<g>
			<path class="st0" d="M446.8,494l-67.5-142.8c-1.3-2.8-3.7-5-6.5-6.2L339.3,330l58.2-97.5c0.1-0.2,0.3-0.5,0.4-0.7
				c11.6-22.6,17.4-47,17.4-72.5c0-43-16.8-83.2-47.4-113.4C337.2,15.7,296.7-0.6,253.7,0C212,0.6,172.7,17.4,143.1,47.2
				C113.4,77.1,97,116.5,96.7,158.3c-0.2,25.5,5.9,50.9,17.4,73.5c0.1,0.2,0.3,0.5,0.4,0.7l58.2,97.5L139,345
				c-2.8,1.2-5,3.4-6.3,6.1L65.2,494c-2.3,4.8-1.3,10.5,2.4,14.2c3.7,3.8,9.3,4.9,14.2,2.7l84.6-37.6l84.6,37.6
				c3.3,1.5,7,1.5,10.3,0l84.6-37.6l84.6,37.6c1.7,0.7,3.4,1.1,5.1,1.1c3.3,0,6.6-1.3,9-3.8C448.1,504.4,449.1,498.7,446.8,494z
				 M136.5,219.9c-9.7-19.1-14.6-39.8-14.5-61.5C122.4,86,181.7,26.3,254.1,25.3c36.2-0.5,70.3,13.2,96,38.6
				c25.7,25.4,39.9,59.3,39.9,95.4c0,21.4-4.9,41.8-14.5,60.6L266.8,402.1c-3.3,5.6-8.7,6.2-10.8,6.2c-2.2,0-7.5-0.6-10.8-6.2
				L136.5,219.9z M350.8,447.9c-3.3-1.5-7-1.5-10.3,0L256,485.5l-84.6-37.6c-3.3-1.5-7-1.5-10.3,0L102.6,474l50.9-107.7l32.3-14.4
				l37.7,63.1c6.9,11.6,19.1,18.5,32.5,18.5c13.5,0,25.6-6.9,32.5-18.5l37.7-63.1l32.3,14.4L409.4,474L350.8,447.9z"/>
		</g>
	</g>
	<g>
		<g>
			<path class="st0" d="M256,101.6c-31.8,0-57.7,25.9-57.7,57.7c0,31.8,25.9,57.7,57.7,57.7c31.8,0,57.7-25.9,57.7-57.7
				C313.7,127.5,287.8,101.6,256,101.6z M256,191.7c-17.9,0-32.4-14.5-32.4-32.4c0-17.9,14.5-32.4,32.4-32.4
				c17.9,0,32.4,14.5,32.4,32.4C288.4,177.1,273.9,191.7,256,191.7z"/>
		</g>
	</g>
</g>
</svg>
