<?xml version="1.0" encoding="utf-8"?>
<!-- Generator: Adobe Illustrator 22.0.1, SVG Export Plug-In . SVG Version: 6.00 Build 0)  -->
<svg version="1.1" id="Capa_1" xmlns="http://www.w3.org/2000/svg" xmlns:xlink="http://www.w3.org/1999/xlink" x="0px" y="0px"
	 viewBox="22.9 0 466.3 512" style="enable-background:new 22.9 0 466.3 512;" xml:space="preserve">
<style type="text/css">
	.st0{fill:#4279DF;}
</style>
<g>
	<path class="st0" d="M24.2,15.9l185.3,489.3c1.5,4,5.5,6.8,9.8,6.8l0.9,0c4.6-0.4,8.5-3.8,9.4-8.4l43.9-225.8l207.2-40
		c4.4-0.9,7.8-4.4,8.4-8.9c0.6-4.5-1.7-8.8-5.8-10.8L39.7,1.9l0-0.1l0,0L37.9,1c-3.8-1.9-8.5-1.2-11.6,1.7
		c-3.1,2.8-4.2,7.4-2.7,11.4l0.6,1.7l0,0L24.2,15.9z M446,223.1l-177.6,34.3L76.6,43.2L446,223.1z M253.4,271.9l-37.3,191.6L63,59.2
		L253.4,271.9z"/>
</g>
</svg>
