<?xml version="1.0" encoding="utf-8"?>
<!-- Generator: Adobe Illustrator 22.0.1, SVG Export Plug-In . SVG Version: 6.00 Build 0)  -->
<svg version="1.1" id="Capa_1" xmlns="http://www.w3.org/2000/svg" xmlns:xlink="http://www.w3.org/1999/xlink" x="0px" y="0px"
	 viewBox="8.5 0 494.9 512" style="enable-background:new 8.5 0 494.9 512;" xml:space="preserve">
<style type="text/css">
	.st0{fill:#4279DF;}
</style>
<g>
	<g>
		<g>
			<path class="st0" d="M361.7,211.2c0,0-15.8-18.3-26.7-18.3h-9v-42.3c0-11.8-9.6-21.4-21.4-21.4c-11.8,0-21.4,9.6-21.4,21.4v42.3
				h-54.4v-42.3c0-11.8-9.6-21.4-21.4-21.4c-11.8,0-21.4,9.6-21.4,21.4v42.3h-9.1c-10.9,0-26.7,18.3-26.7,18.3L33.2,320.5
				c-4.5,4.2-8.1,11.8-8.1,17.1v9.5v125.5c0,21.7,17.6,39.3,39.3,39.3h383.3c21.7,0,39.3-17.6,39.3-39.3V347.1c0,0,0-4.2,0-9.5
				c0-5.2-3.6-12.9-8.1-17.1L361.7,211.2z M433.4,458.5H78.6V351.4l108.2-101l1.9-1.7l1.9-2.2c0,0,0,0,0,0h130.8l1.7,2l2.1,2
				l108.2,101L433.4,458.5L433.4,458.5z"/>
			<path class="st0" d="M343,0H169C80.4,0,8.5,71.9,8.5,160.5V182c0,6,4.9,10.9,11,10.9h98.5c14.8,0,26.8-12,26.8-26.7V111
				c0-14.8,12-26.7,26.7-26.7h168.9c14.8,0,26.7,12,26.7,26.7v55.1c0,14.8,12,26.7,26.7,26.7h98.6c6,0,10.9-4.9,10.9-10.9v-21.4
				C503.5,71.9,431.6,0,343,0z"/>
			<path class="st0" d="M256,273.5c-45.1,0-81.7,36.6-81.7,81.7c0,45.1,36.6,81.6,81.7,81.6c45.1,0,81.7-36.5,81.7-81.6
				C337.7,310.1,301.1,273.5,256,273.5z M256,375.1c-11,0-19.9-8.9-19.9-19.9c0-11,8.9-19.9,19.9-19.9c11,0,19.9,8.9,19.9,19.9
				C275.9,366.2,267,375.1,256,375.1z"/>
		</g>
	</g>
</g>
</svg>
